<svg xmlns="http://www.w3.org/2000/svg"  viewBox="0 0 64 64" width="512px" height="512px"><linearGradient id="LA1sc2lqm~ihY3zOa_Lwna" x1="32" x2="32" y1="7" y2="56.277" gradientUnits="userSpaceOnUse"><stop offset="0" stop-color="#1a6dff"/><stop offset="1" stop-color="#c822ff"/></linearGradient><path fill="url(#LA1sc2lqm~ihY3zOa_Lwna)" d="M55.497,27.04c-0.877-0.141-1.768,0.102-2.439,0.674c-0.409,0.348-0.712,0.792-0.886,1.286 h-0.587c-0.477,0-0.877-0.333-0.975-0.811c-0.401-1.968-1.107-3.817-2.056-5.506c-0.504-0.903-0.511-1.94-0.059-2.775 c0.443,0.19,0.93,0.274,1.425,0.232c0.879-0.071,1.682-0.526,2.202-1.249c0.845-1.173,0.673-2.866-0.398-3.938l-2.676-2.677 c-1.072-1.072-2.766-1.243-3.939-0.399c-0.723,0.521-1.178,1.323-1.249,2.202c-0.04,0.493,0.042,0.981,0.233,1.425 c-0.836,0.452-1.872,0.444-2.775-0.059c-1.69-0.948-3.538-1.654-5.506-2.055C35.333,13.293,35,12.893,35,12.416v-0.587 c0.494-0.175,0.938-0.478,1.286-0.887c0.571-0.672,0.816-1.561,0.673-2.439C36.727,7.076,35.409,6,33.893,6h-3.786 c-1.516,0-2.834,1.076-3.066,2.503c-0.143,0.879,0.102,1.768,0.673,2.439c0.348,0.409,0.792,0.712,1.286,0.887v0.587 c0,0.477-0.333,0.877-0.811,0.975c-1.968,0.401-3.816,1.107-5.506,2.055c-0.903,0.503-1.94,0.511-2.775,0.059 c0.19-0.443,0.272-0.932,0.233-1.425c-0.071-0.879-0.526-1.682-1.249-2.202c-1.172-0.845-2.866-0.674-3.938,0.399l-2.677,2.677 c-1.072,1.071-1.243,2.765-0.398,3.938c0.52,0.723,1.323,1.178,2.202,1.249c0.493,0.043,0.981-0.043,1.425-0.232 c0.452,0.835,0.444,1.872-0.059,2.775c-0.948,1.69-1.654,3.538-2.056,5.506C13.293,28.667,12.892,29,12.416,29h-0.587 c-0.174-0.494-0.477-0.938-0.886-1.286c-0.671-0.571-1.561-0.815-2.439-0.674C7.076,27.272,6,28.592,6,30.107v3.785 c0,1.516,1.076,2.835,2.503,3.067c0.876,0.142,1.767-0.103,2.439-0.674c0.409-0.348,0.712-0.792,0.886-1.286h0.587 c0.477,0,0.877,0.333,0.975,0.811c0.401,1.969,1.108,3.819,2.057,5.509c0.502,0.902,0.509,1.937,0.057,2.772 c-0.443-0.19-0.932-0.274-1.424-0.232c-0.879,0.071-1.682,0.526-2.202,1.249c-0.844,1.173-0.673,2.865,0.398,3.938l2.676,2.676 c0.616,0.616,1.436,0.935,2.245,0.935c0.601,0,1.195-0.176,1.694-0.536c0.723-0.52,1.178-1.321,1.249-2.2 c0.04-0.494-0.042-0.982-0.233-1.426c0.835-0.453,1.871-0.445,2.776,0.059c1.69,0.948,3.538,1.654,5.506,2.055 C28.667,50.707,29,51.107,29,51.584v0.587c-0.494,0.175-0.938,0.478-1.286,0.887c-0.571,0.672-0.816,1.561-0.673,2.439 C27.273,56.924,28.591,58,30.107,58h3.786c1.516,0,2.834-1.076,3.066-2.503c0.143-0.879-0.102-1.768-0.673-2.439 c-0.348-0.409-0.792-0.712-1.286-0.887v-0.587c0-0.477,0.333-0.877,0.811-0.975c1.968-0.401,3.816-1.107,5.506-2.055 c0.904-0.504,1.94-0.511,2.776-0.059c-0.19,0.443-0.273,0.932-0.233,1.426c0.071,0.879,0.526,1.681,1.248,2.2 c0.5,0.36,1.095,0.536,1.696,0.536c0.809,0,1.628-0.318,2.244-0.935l2.677-2.676c1.071-1.073,1.242-2.766,0.398-3.938 c-0.52-0.723-1.323-1.178-2.202-1.249c-0.494-0.041-0.981,0.043-1.425,0.232c-0.452-0.834-0.444-1.87,0.058-2.772 c0.949-1.69,1.656-3.539,2.057-5.509C50.707,35.333,51.108,35,51.584,35h0.587c0.174,0.494,0.477,0.938,0.886,1.286 c0.671,0.571,1.558,0.815,2.439,0.674C56.924,36.728,58,35.408,58,33.893v-3.785C58,28.592,56.924,27.272,55.497,27.04z M46.141,16.445c0.034-0.033,0.066-0.071,0.094-0.109c0.299-0.397,0.259-0.955-0.093-1.307c-0.208-0.208-0.313-0.495-0.29-0.788 c0.024-0.298,0.174-0.561,0.423-0.74c0.38-0.274,0.977-0.189,1.356,0.19l2.677,2.677c0.38,0.38,0.463,0.976,0.189,1.355 c-0.18,0.249-0.442,0.399-0.739,0.424c-0.296,0.022-0.581-0.082-0.788-0.29c-0.206-0.205-0.494-0.313-0.779-0.289 c-0.244,0.017-0.472,0.123-0.642,0.296c-0.512,0.513-0.88,1.128-1.104,1.79c-0.646-0.756-1.35-1.46-2.107-2.105 C45.005,17.322,45.625,16.96,46.141,16.445z M16.464,17.878c-0.171-0.181-0.405-0.293-0.657-0.311 c-0.289-0.021-0.573,0.085-0.778,0.29c-0.208,0.208-0.492,0.314-0.788,0.29c-0.297-0.024-0.56-0.175-0.739-0.424 c-0.273-0.38-0.19-0.976,0.189-1.355l2.677-2.677c0.38-0.379,0.977-0.464,1.355-0.19c0.25,0.18,0.4,0.442,0.424,0.74 c0.024,0.293-0.082,0.58-0.29,0.788c-0.352,0.352-0.39,0.911-0.091,1.309c0.028,0.038,0.059,0.074,0.093,0.107 c0.515,0.514,1.131,0.884,1.796,1.108c-0.755,0.645-1.458,1.348-2.103,2.103C17.328,19,16.969,18.388,16.464,17.878z M17.859,47.555c-0.034,0.033-0.066,0.071-0.094,0.109c-0.299,0.397-0.259,0.955,0.093,1.307c0.208,0.208,0.313,0.495,0.29,0.789 c-0.024,0.297-0.174,0.559-0.424,0.738c-0.38,0.274-0.976,0.19-1.355-0.189l-2.676-2.676c-0.38-0.38-0.463-0.977-0.19-1.356 c0.18-0.249,0.442-0.399,0.739-0.424c0.295-0.021,0.581,0.082,0.788,0.29c0.188,0.188,0.443,0.292,0.708,0.292 c0.265,0,0.521-0.106,0.708-0.294c0.518-0.517,0.87-1.144,1.094-1.813c0.651,0.764,1.361,1.475,2.125,2.126 C18.997,46.681,18.375,47.039,17.859,47.555z M47.557,46.143c0.375,0.376,1.04,0.376,1.415,0c0.208-0.207,0.493-0.31,0.788-0.29 c0.297,0.024,0.56,0.175,0.739,0.424c0.273,0.38,0.19,0.977-0.189,1.356l-2.677,2.676c-0.379,0.381-0.974,0.464-1.356,0.189 c-0.249-0.18-0.399-0.441-0.423-0.738c-0.024-0.294,0.082-0.581,0.29-0.789c0.352-0.352,0.39-0.911,0.091-1.309 c-0.028-0.038-0.059-0.074-0.093-0.107c-0.517-0.517-1.143-0.871-1.811-1.095c0.764-0.651,1.474-1.361,2.125-2.124 C46.681,45.002,47.04,45.626,47.557,46.143z M56,33.893c0,0.538-0.362,1.018-0.825,1.093c-0.303,0.05-0.595-0.03-0.822-0.223 C54.128,34.572,54,34.294,54,34c0-0.553-0.448-1-1-1h-1.416c-1.416,0-2.65,1.015-2.935,2.412 c-1.361,6.681-6.558,11.877-13.239,13.238C34.014,48.935,33,50.169,33,51.584V53c0,0.553,0.448,1,1,1 c0.294,0,0.572,0.129,0.763,0.353c0.193,0.228,0.272,0.52,0.223,0.822C34.91,55.638,34.43,56,33.893,56h-3.786 c-0.537,0-1.017-0.362-1.093-0.825c-0.049-0.303,0.03-0.595,0.223-0.822C29.428,54.129,29.706,54,30,54c0.552,0,1-0.447,1-1v-1.416 c0-1.415-1.014-2.649-2.411-2.934c-6.681-1.361-11.878-6.558-13.239-13.238C15.065,34.015,13.831,33,12.416,33H11 c-0.552,0-1,0.447-1,1c0,0.294-0.128,0.572-0.353,0.763c-0.228,0.192-0.521,0.271-0.822,0.223C8.362,34.91,8,34.431,8,33.893 v-3.785c0-0.538,0.362-1.018,0.825-1.093c0.304-0.05,0.595,0.03,0.822,0.223C9.872,29.428,10,29.706,10,30c0,0.553,0.448,1,1,1 h1.416c1.416,0,2.65-1.015,2.935-2.412c1.361-6.681,6.558-11.877,13.239-13.238C29.986,15.065,31,13.831,31,12.416V11 c0-0.553-0.448-1-1-1c-0.294,0-0.572-0.129-0.763-0.353c-0.193-0.228-0.272-0.52-0.223-0.822C29.09,8.362,29.57,8,30.107,8h3.786 c0.537,0,1.017,0.362,1.093,0.825c0.049,0.303-0.03,0.595-0.223,0.822C34.572,9.871,34.294,10,34,10c-0.552,0-1,0.447-1,1v1.416 c0,1.415,1.014,2.649,2.411,2.934c6.681,1.361,11.878,6.558,13.239,13.238C48.935,29.985,50.169,31,51.584,31H53 c0.552,0,1-0.447,1-1c0-0.294,0.128-0.572,0.353-0.763c0.227-0.193,0.518-0.274,0.822-0.223C55.638,29.09,56,29.569,56,30.107 V33.893z"/><linearGradient id="LA1sc2lqm~ihY3zOa_Lwnb" x1="28" x2="28" y1="7" y2="56.277" gradientUnits="userSpaceOnUse"><stop offset="0" stop-color="#1a6dff"/><stop offset="1" stop-color="#c822ff"/></linearGradient><path fill="url(#LA1sc2lqm~ihY3zOa_Lwnb)" d="M28,18.758c-2.891,0-5.243,2.352-5.243,5.242s2.352,5.242,5.243,5.242 s5.243-2.352,5.243-5.242S30.891,18.758,28,18.758z M28,27.242c-1.788,0-3.243-1.454-3.243-3.242s1.455-3.242,3.243-3.242 s3.243,1.454,3.243,3.242S29.788,27.242,28,27.242z"/><linearGradient id="LA1sc2lqm~ihY3zOa_Lwnc" x1="40" x2="40" y1="7" y2="56.277" gradientUnits="userSpaceOnUse"><stop offset="0" stop-color="#1a6dff"/><stop offset="1" stop-color="#c822ff"/></linearGradient><path fill="url(#LA1sc2lqm~ihY3zOa_Lwnc)" d="M40,26.758c-2.891,0-5.243,2.352-5.243,5.242s2.352,5.242,5.243,5.242 s5.243-2.352,5.243-5.242S42.891,26.758,40,26.758z M40,35.242c-1.788,0-3.243-1.454-3.243-3.242s1.455-3.242,3.243-3.242 s3.243,1.454,3.243,3.242S41.788,35.242,40,35.242z"/><linearGradient id="LA1sc2lqm~ihY3zOa_Lwnd" x1="28" x2="28" y1="7" y2="56.277" gradientUnits="userSpaceOnUse"><stop offset="0" stop-color="#1a6dff"/><stop offset="1" stop-color="#c822ff"/></linearGradient><path fill="url(#LA1sc2lqm~ihY3zOa_Lwnd)" d="M28,33.758c-2.891,0-5.243,2.352-5.243,5.242s2.352,5.242,5.243,5.242 s5.243-2.352,5.243-5.242S30.891,33.758,28,33.758z M28,42.242c-1.788,0-3.243-1.454-3.243-3.242s1.455-3.242,3.243-3.242 s3.243,1.454,3.243,3.242S29.788,42.242,28,42.242z"/><g><linearGradient id="LA1sc2lqm~ihY3zOa_Lwne" x1="28" x2="28" y1="37" y2="40.917" gradientUnits="userSpaceOnUse"><stop offset="0" stop-color="#6dc7ff"/><stop offset="1" stop-color="#e6abff"/></linearGradient><circle cx="28" cy="39" r="2" fill="url(#LA1sc2lqm~ihY3zOa_Lwne)"/></g><g><linearGradient id="LA1sc2lqm~ihY3zOa_Lwnf" x1="40" x2="40" y1="30.192" y2="33.57" gradientUnits="userSpaceOnUse"><stop offset="0" stop-color="#6dc7ff"/><stop offset="1" stop-color="#e6abff"/></linearGradient><circle cx="40" cy="32" r="2" fill="url(#LA1sc2lqm~ihY3zOa_Lwnf)"/></g><g><linearGradient id="LA1sc2lqm~ihY3zOa_Lwng" x1="28" x2="28" y1="21.894" y2="26.233" gradientUnits="userSpaceOnUse"><stop offset="0" stop-color="#6dc7ff"/><stop offset="1" stop-color="#e6abff"/></linearGradient><circle cx="28" cy="24" r="2" fill="url(#LA1sc2lqm~ihY3zOa_Lwng)"/></g></svg>